<svg width="89" height="88" viewBox="0 0 89 88" fill="none" xmlns="http://www.w3.org/2000/svg">
<g filter="url(#filter0_di_363_465)">
<path fill-rule="evenodd" clip-rule="evenodd" d="M8.75 44.0001C8.75 41.3258 9.81235 38.7611 11.7033 36.8701C13.5943 34.9791 16.1591 33.9167 18.8333 33.9167C21.5076 33.9167 24.0723 34.9791 25.9633 36.8701C27.8543 38.7611 28.9167 41.3258 28.9167 44.0001C28.9167 46.6743 27.8543 49.2391 25.9633 51.1301C24.0723 53.0211 21.5076 54.0834 18.8333 54.0834C16.1591 54.0834 13.5943 53.0211 11.7033 51.1301C9.81235 49.2391 8.75 46.6743 8.75 44.0001ZM18.8333 39.4167C17.6178 39.4167 16.452 39.8996 15.5924 40.7592C14.7329 41.6187 14.25 42.7845 14.25 44.0001C14.25 45.2157 14.7329 46.3814 15.5924 47.241C16.452 48.1005 17.6178 48.5834 18.8333 48.5834C20.0489 48.5834 21.2147 48.1005 22.0742 47.241C22.9338 46.3814 23.4167 45.2157 23.4167 44.0001C23.4167 42.7845 22.9338 41.6187 22.0742 40.7592C21.2147 39.8996 20.0489 39.4167 18.8333 39.4167ZM34.4167 44.0001C34.4167 41.3258 35.479 38.7611 37.37 36.8701C39.261 34.9791 41.8257 33.9167 44.5 33.9167C47.1743 33.9167 49.739 34.9791 51.63 36.8701C53.521 38.7611 54.5833 41.3258 54.5833 44.0001C54.5833 46.6743 53.521 49.2391 51.63 51.1301C49.739 53.0211 47.1743 54.0834 44.5 54.0834C41.8257 54.0834 39.261 53.0211 37.37 51.1301C35.479 49.2391 34.4167 46.6743 34.4167 44.0001ZM44.5 39.4167C43.2844 39.4167 42.1186 39.8996 41.2591 40.7592C40.3996 41.6187 39.9167 42.7845 39.9167 44.0001C39.9167 45.2157 40.3996 46.3814 41.2591 47.241C42.1186 48.1005 43.2844 48.5834 44.5 48.5834C45.7156 48.5834 46.8814 48.1005 47.7409 47.241C48.6004 46.3814 49.0833 45.2157 49.0833 44.0001C49.0833 42.7845 48.6004 41.6187 47.7409 40.7592C46.8814 39.8996 45.7156 39.4167 44.5 39.4167ZM70.1667 33.9167C67.4924 33.9167 64.9277 34.9791 63.0367 36.8701C61.1457 38.7611 60.0833 41.3258 60.0833 44.0001C60.0833 46.6743 61.1457 49.2391 63.0367 51.1301C64.9277 53.0211 67.4924 54.0834 70.1667 54.0834C72.8409 54.0834 75.4057 53.0211 77.2967 51.1301C79.1877 49.2391 80.25 46.6743 80.25 44.0001C80.25 41.3258 79.1877 38.7611 77.2967 36.8701C75.4057 34.9791 72.8409 33.9167 70.1667 33.9167ZM65.5833 44.0001C65.5833 43.3982 65.7019 42.8022 65.9322 42.2461C66.1626 41.69 66.5002 41.1848 66.9258 40.7592C67.3514 40.3336 67.8566 39.996 68.4127 39.7656C68.9688 39.5353 69.5648 39.4167 70.1667 39.4167C70.7686 39.4167 71.3646 39.5353 71.9206 39.7656C72.4767 39.996 72.982 40.3336 73.4076 40.7592C73.8332 41.1848 74.1708 41.69 74.4011 42.2461C74.6315 42.8022 74.75 43.3982 74.75 44.0001C74.75 45.2157 74.2671 46.3814 73.4076 47.241C72.548 48.1005 71.3822 48.5834 70.1667 48.5834C68.9511 48.5834 67.7853 48.1005 66.9258 47.241C66.0662 46.3814 65.5833 45.2157 65.5833 44.0001Z" fill="#616D69"/>
</g>
<defs>
<filter id="filter0_di_363_465" x="8.75" y="33.9167" width="76.5" height="26.1667" filterUnits="userSpaceOnUse" color-interpolation-filters="sRGB">
<feFlood flood-opacity="0" result="BackgroundImageFix"/>
<feColorMatrix in="SourceAlpha" type="matrix" values="0 0 0 0 0 0 0 0 0 0 0 0 0 0 0 0 0 0 127 0" result="hardAlpha"/>
<feOffset dx="3" dy="4"/>
<feGaussianBlur stdDeviation="1"/>
<feComposite in2="hardAlpha" operator="out"/>
<feColorMatrix type="matrix" values="0 0 0 0 0 0 0 0 0 0 0 0 0 0 0 0 0 0 0.25 0"/>
<feBlend mode="normal" in2="BackgroundImageFix" result="effect1_dropShadow_363_465"/>
<feBlend mode="normal" in="SourceGraphic" in2="effect1_dropShadow_363_465" result="shape"/>
<feColorMatrix in="SourceAlpha" type="matrix" values="0 0 0 0 0 0 0 0 0 0 0 0 0 0 0 0 0 0 127 0" result="hardAlpha"/>
<feOffset dx="10" dy="4"/>
<feGaussianBlur stdDeviation="2"/>
<feComposite in2="hardAlpha" operator="arithmetic" k2="-1" k3="1"/>
<feColorMatrix type="matrix" values="0 0 0 0 1 0 0 0 0 1 0 0 0 0 1 0 0 0 0.25 0"/>
<feBlend mode="normal" in2="shape" result="effect2_innerShadow_363_465"/>
</filter>
</defs>
</svg>
