<svg width="70" height="54" viewBox="0 0 70 54" fill="none" xmlns="http://www.w3.org/2000/svg">
<g filter="url(#filter0_d_310_614)">
<g filter="url(#filter1_d_310_614)">
<path d="M29.77 13.4C27.906 13.4 26.1184 14.2007 24.8003 15.626C23.4823 17.0513 22.7418 18.9844 22.7418 21C22.7418 23.0156 23.4823 24.9487 24.8003 26.374C26.1184 27.7993 27.906 28.6 29.77 28.6C31.634 28.6 33.4216 27.7993 34.7397 26.374C36.0577 24.9487 36.7982 23.0156 36.7982 21C36.7982 18.9844 36.0577 17.0513 34.7397 15.626C33.4216 14.2007 31.634 13.4 29.77 13.4ZM29.77 33.6667C26.6634 33.6667 23.6839 32.3321 21.4872 29.9567C19.2905 27.5812 18.0564 24.3594 18.0564 21C18.0564 17.6406 19.2905 14.4188 21.4872 12.0433C23.6839 9.66785 26.6634 8.33333 29.77 8.33333C32.8767 8.33333 35.8561 9.66785 38.0528 12.0433C40.2495 14.4188 41.4836 17.6406 41.4836 21C41.4836 24.3594 40.2495 27.5812 38.0528 29.9567C35.8561 32.3321 32.8767 33.6667 29.77 33.6667ZM29.77 2C18.0564 2 8.05292 9.87867 4 21C8.05292 32.1213 18.0564 40 29.77 40C41.4836 40 51.4871 32.1213 55.54 21C51.4871 9.87867 41.4836 2 29.77 2Z" fill="#616D69"/>
</g>
</g>
<defs>
<filter id="filter0_d_310_614" x="2" y="0" width="67.54" height="54" filterUnits="userSpaceOnUse" color-interpolation-filters="sRGB">
<feFlood flood-opacity="0" result="BackgroundImageFix"/>
<feColorMatrix in="SourceAlpha" type="matrix" values="0 0 0 0 0 0 0 0 0 0 0 0 0 0 0 0 0 0 127 0" result="hardAlpha"/>
<feOffset dx="6" dy="6"/>
<feGaussianBlur stdDeviation="4"/>
<feComposite in2="hardAlpha" operator="out"/>
<feColorMatrix type="matrix" values="0 0 0 0 0 0 0 0 0 0 0 0 0 0 0 0 0 0 0.25 0"/>
<feBlend mode="normal" in2="BackgroundImageFix" result="effect1_dropShadow_310_614"/>
<feBlend mode="normal" in="SourceGraphic" in2="effect1_dropShadow_310_614" result="shape"/>
</filter>
<filter id="filter1_d_310_614" x="0" y="2" width="59.54" height="46" filterUnits="userSpaceOnUse" color-interpolation-filters="sRGB">
<feFlood flood-opacity="0" result="BackgroundImageFix"/>
<feColorMatrix in="SourceAlpha" type="matrix" values="0 0 0 0 0 0 0 0 0 0 0 0 0 0 0 0 0 0 127 0" result="hardAlpha"/>
<feOffset dy="4"/>
<feGaussianBlur stdDeviation="2"/>
<feComposite in2="hardAlpha" operator="out"/>
<feColorMatrix type="matrix" values="0 0 0 0 0 0 0 0 0 0 0 0 0 0 0 0 0 0 0.25 0"/>
<feBlend mode="normal" in2="BackgroundImageFix" result="effect1_dropShadow_310_614"/>
<feBlend mode="normal" in="SourceGraphic" in2="effect1_dropShadow_310_614" result="shape"/>
</filter>
</defs>
</svg>
